# xmcd CD database file
#
# Track frame offsets:
#	150
#	14144
#	27160
#	41283
#	53872
#	64911
#	77303
#	90347
#	103248
#	115668
#	129025
#	142751
#
# Disc length: 1993 seconds
#
# Revision: 2
# Processed by: cddbd v1.5.1PL2 Copyright (c) Steve Scherf et al.
# Submitted via: CDex 1.50
#
DISCID=8a07c70c
DTITLE=Ernest Cline - The Geek Wants Out
DYEAR=2001
DGENRE=Jazz
TTITLE0=Nerd Porn Auteur
TTITLE1=When I Was A Kid
TTITLE2=Bottom Bunk Messiah
TTITLE3=Tech Support
TTITLE4=Cunning Linguistics
TTITLE5=Curriculum Vitae
TTITLE6=Airwolf
TTITLE7=The Geek Wants Out
TTITLE8=Mr. Nostradamus
TTITLE9=Cinema Verite
TTITLE10=Dance, Monkeys, Dance
TTITLE11=Haiku
EXTD=YEAR: 2001
EXTT0=
EXTT1=
EXTT2=
EXTT3=
EXTT4=
EXTT5=
EXTT6=
EXTT7=
EXTT8=
EXTT9=
EXTT10=
EXTT11=
PLAYORDER=
